<?xml version="1.0" encoding="UTF-8" standalone="no"?>
<!-- Created with Inkscape (http://www.inkscape.org/) -->

<svg
   width="136.32001"
   height="165.952"
   viewBox="0 0 136.32001 165.952"
   version="1.1"
   id="svg1"
   inkscape:version="1.3 (0e150ed, 2023-07-21)"
   sodipodi:docname="Z.svg"
   inkscape:export-filename="Z_plain.svg"
   inkscape:export-xdpi="96"
   inkscape:export-ydpi="96"
   xmlns:inkscape="http://www.inkscape.org/namespaces/inkscape"
   xmlns:sodipodi="http://sodipodi.sourceforge.net/DTD/sodipodi-0.dtd"
   xmlns="http://www.w3.org/2000/svg"
   xmlns:svg="http://www.w3.org/2000/svg">
  <sodipodi:namedview
     id="namedview1"
     pagecolor="#ffffff"
     bordercolor="#000000"
     borderopacity="0.25"
     inkscape:showpageshadow="2"
     inkscape:pageopacity="0.0"
     inkscape:pagecheckerboard="0"
     inkscape:deskcolor="#d1d1d1"
     inkscape:document-units="px"
     inkscape:zoom="0.91637324"
     inkscape:cx="285.36407"
     inkscape:cy="537.44476"
     inkscape:window-width="1392"
     inkscape:window-height="1212"
     inkscape:window-x="3545"
     inkscape:window-y="216"
     inkscape:window-maximized="0"
     inkscape:current-layer="layer1" />
  <defs
     id="defs1" />
  <g
     inkscape:label="Layer 1"
     inkscape:groupmode="layer"
     id="layer1"
     transform="translate(-34.09152,-30.934385)">
    <path
       style="font-size:192px;font-family:Luminari;-inkscape-font-specification:Luminari"
       d="m 166.57152,169.55838 q -2.112,2.688 -4.608,6.912 -2.496,4.032 -4.8,8.064 -2.304,4.032 -4.224,7.296 -1.728,3.264 -2.496,4.224 -0.576,0.768 -1.536,0.768 -0.768,0.192 -1.728,-0.192 -0.768,-0.192 -1.344,-0.768 -0.576,-0.576 -0.384,-1.344 0.768,-0.96 1.152,-1.728 0.384,-0.576 0.384,-1.536 0,-1.92 -6.528,-3.648 -6.528,-1.536 -16.512,-3.072 -9.792,-1.344 -21.312,-2.496 -11.52,-0.96 -21.312,-1.728 -9.792,-0.576 -16.32,-1.152 -6.528,-0.384 -6.528,-0.384 -5.952,0 -11.136,0.384 -5.184,0.576 -10.176,1.728 -1.536,-0.768 -2.112,-1.536 -0.576,-0.576 -0.768,-1.152 -0.192,-0.576 0,-1.152 0,-0.576 -0.192,-1.344 4.416,-1.536 7.488,-2.88 3.072,-1.536 6.72,-4.8 5.376,-4.224 10.368,-10.944 4.992,-6.912 9.984,-15.168 5.184,-8.448 10.368,-17.472 5.184,-9.216 10.944,-17.856 3.264,-4.8 7.488,-11.327995 4.416,-6.528 9.216,-13.248 4.992,-6.912 10.176,-13.44 5.184,-6.528 10.176,-11.52 -1.152,-0.96 -4.416,-1.152 -3.264,-0.384 -9.792,-0.384 -4.8,0 -12.48,0.576 -7.488,0.576 -15.36,1.344 -7.872,0.768 -14.592,1.728 -6.528,0.96 -9.216,1.536 -3.648,0.96 -5.76,2.112 -2.112,1.152 -3.648,2.304 -1.344,0.96 -2.496,1.728 -0.96,0.768 -2.304,0.768 -2.496,0 -2.688,-1.344 0,-1.152 0.576,-1.728 0.768,-0.768 1.728,-1.536 2.88,-2.688 5.184,-8.064 2.496,-5.376 4.608,-10.56 2.112,-5.376 3.648,-9.408 1.536,-4.032 2.688,-4.032 1.344,0 1.92,0.768 0.576,0.768 0.576,1.344 0,0.96 -0.576,2.304 -0.384,1.344 -0.384,3.072 0,0.96 3.84,1.92 3.84,0.96 10.368,1.92 6.528,0.768 15.36,1.344 8.832,0.576 18.624,0.576 7.104,0 13.632,-0.576 6.72,-0.576 12.672,-1.152 5.952,-0.576 10.752,-1.152 4.992,-0.576 8.448,-0.576 1.536,0 1.92,1.728 0.576,1.536 0.576,2.688 0,0.96 -0.576,1.344 -0.576,0.384 -1.344,0.576 -0.768,0.192 -1.728,0.576 -0.768,0.192 -1.344,0.96 -2.688,3.072 -6.528,8.448 -3.648,5.184 -8.256,12.288 -4.416,6.912 -9.408,15.36 -4.8,8.448 -9.984,17.663995 -8.064,14.4 -15.168,25.344 -7.104,10.752 -13.44,18.624 -6.336,7.872 -11.712,13.056 -5.376,5.184 -9.792,8.448 1.344,0.384 5.568,1.152 4.416,0.768 10.56,1.536 6.336,0.768 14.016,1.344 7.68,0.576 15.936,0.576 11.328,0 19.968,-1.152 8.832,-1.152 14.784,-2.688 6.144,-1.536 9.6,-3.072 3.456,-1.728 4.608,-2.688 1.344,-1.152 2.496,-0.384 1.344,0.576 1.728,2.304 z"
       id="text1"
       aria-label="Z" />
  </g>
</svg>
